<svg width="50" height="28" viewBox="0 0 50 28" fill="none" xmlns="http://www.w3.org/2000/svg">
<path d="M31.6416 1C37.3973 1.00005 41.6478 4.52856 41.6914 8.44238L41.7012 9.35938L42.6162 9.42871C46.363 9.71219 49 12.2242 49 14.9697L48.9932 15.2129C48.8518 17.7139 46.5436 19.9613 43.2139 20.4434L42.3574 20.5674V21.4326C42.3574 24.3418 39.3805 27 35.2939 27C32.3661 26.9999 29.9376 25.5996 28.8555 23.7178L27.9883 22.21L27.1211 23.7178C26.0388 25.5996 23.6104 27 20.6826 27C18.1502 26.9999 15.9789 25.9482 14.7422 24.4365L14.3301 23.9326L13.7021 24.1055C12.9766 24.305 12.1973 24.415 11.3848 24.415C8.04133 24.415 5.37852 22.6004 4.57812 20.3359L4.44434 19.9551L4.08203 19.7744L3.73438 19.5879C2.03571 18.6122 1.00009 17.0193 1 15.293C1 12.543 3.69676 10.064 7.36719 10.0488L8.22461 10.0449L8.35254 9.19824C8.74681 6.58351 11.8462 4.23145 16.0342 4.23145C18.0133 4.23148 19.7996 4.77295 21.1523 5.63965L22 6.18359L22.5371 5.33105C24.1109 2.83282 27.5412 1 31.6416 1Z" stroke="#252C36" stroke-width="2"/>
</svg>
