<svg width="48" height="48" viewBox="0 0 48 48" fill="none" xmlns="http://www.w3.org/2000/svg">
<path d="M23.3125 1.1709C23.7423 0.943538 24.2577 0.943538 24.6875 1.1709C24.787 1.22385 25.0225 1.43824 25.4092 2.25879C25.7767 3.03867 26.1886 4.14939 26.7676 5.71387L27.7734 8.43164C28.8682 11.3897 29.4703 13.041 30.4492 14.4326C31.3012 15.6438 32.3562 16.6988 33.5674 17.5508C34.959 18.5297 36.6103 19.1318 39.5684 20.2266L42.2861 21.2324C43.8506 21.8114 44.9613 22.2233 45.7412 22.5908C46.5618 22.9775 46.7762 23.213 46.8291 23.3125C47.0565 23.7423 47.0565 24.2577 46.8291 24.6875C46.7762 24.787 46.5618 25.0225 45.7412 25.4092C44.9613 25.7767 43.8506 26.1886 42.2861 26.7676L39.5684 27.7734C36.6103 28.8682 34.959 29.4703 33.5674 30.4492C32.3562 31.3012 31.3012 32.3562 30.4492 33.5674C29.4703 34.959 28.8682 36.6103 27.7734 39.5684L26.7676 42.2861C26.1886 43.8506 25.7767 44.9613 25.4092 45.7412C25.0225 46.5618 24.787 46.7762 24.6875 46.8291C24.2577 47.0565 23.7423 47.0565 23.3125 46.8291C23.213 46.7762 22.9775 46.5618 22.5908 45.7412C22.2233 44.9613 21.8114 43.8506 21.2324 42.2861L20.2266 39.5684C19.1318 36.6103 18.5297 34.959 17.5508 33.5674C16.6988 32.3562 15.6438 31.3012 14.4326 30.4492C13.041 29.4703 11.3897 28.8682 8.43164 27.7734L5.71387 26.7676C4.14939 26.1886 3.03867 25.7767 2.25879 25.4092C1.43824 25.0225 1.22385 24.787 1.1709 24.6875C0.943538 24.2577 0.943538 23.7423 1.1709 23.3125C1.22385 23.213 1.43824 22.9775 2.25879 22.5908C3.03867 22.2233 4.14939 21.8114 5.71387 21.2324L8.43164 20.2266C11.3897 19.1318 13.041 18.5297 14.4326 17.5508C15.6438 16.6988 16.6988 15.6438 17.5508 14.4326C18.5297 13.041 19.1318 11.3897 20.2266 8.43164L21.2324 5.71387C21.8114 4.14939 22.2233 3.03867 22.5908 2.25879C22.9775 1.43824 23.213 1.22385 23.3125 1.1709Z" stroke="#252C36" stroke-width="2"/>
</svg>
