<svg width="42" height="44" viewBox="0 0 42 44" fill="none" xmlns="http://www.w3.org/2000/svg">
<path d="M19.5986 1.26855C20.4991 0.910671 21.501 0.910665 22.4014 1.26855L27.0225 3.10547L27.0801 3.12891L27.1406 3.14453L31.9502 4.39453C32.8872 4.63823 33.7 5.23275 34.2217 6.05859L36.8887 10.2822L36.9219 10.334L36.9609 10.3818L40.1221 14.2432C40.7404 14.9983 41.053 15.9634 40.9932 16.9424L40.6865 21.9385L40.6826 22L40.6865 22.0615L40.9932 27.0576C41.0531 28.0365 40.7405 29.0016 40.1221 29.7568L36.9609 33.6182L36.9219 33.665L36.8887 33.7178L34.2363 37.9189L34.1094 38.1074C33.5871 38.8466 32.8227 39.3775 31.9502 39.6045L27.1406 40.8555L27.0801 40.8711L27.0225 40.8936L22.4229 42.7227L22.2188 42.7979C21.4279 43.0664 20.5714 43.0666 19.7803 42.7979L19.5771 42.7227H19.5762L14.9775 40.8936L14.9199 40.8711L14.8594 40.8555L10.0488 39.6045C9.17602 39.3774 8.41095 38.8468 7.88867 38.1074L7.76562 37.9219L5.11035 33.7168L5.07715 33.665L5.03809 33.6182L1.87695 29.7568C1.29766 29.0494 0.988139 28.1571 1.00098 27.2412L1 27.2402L1.00879 27.0332L1.00781 27.0322L1.3125 22.0605L1.31641 22L1.3125 21.9385L1.00684 16.9424C0.950916 16.0282 1.21835 15.1262 1.75684 14.3965L1.87695 14.2432L5.03809 10.3818L5.07715 10.334L5.11035 10.2822L7.77832 6.05859C8.26636 5.28599 9.00834 4.71597 9.86914 4.44629L10.0654 4.38965L14.8594 3.14453L14.9199 3.12891L14.9775 3.10547L19.5986 1.26855Z" stroke="#252C36" stroke-width="2"/>
</svg>
