<svg width="46" height="42" viewBox="0 0 46 42" fill="none" xmlns="http://www.w3.org/2000/svg">
<path d="M41.3891 21.8304L23.7311 40.3939C23.3369 40.8083 22.6761 40.8083 22.2819 40.3939L4.46262 21.6608C3.82732 20.9929 3.25639 20.257 2.83746 19.4359C-2.38582 9.19876 4.68128 3.40669 9.67762 1.45179C10.225 1.2376 10.799 1.09527 11.3845 1.04312C17.8587 0.466469 21.6725 5.8101 22.9071 8.897C22.9419 8.98407 23.0695 8.97794 23.102 8.88995C25.956 1.14832 32.5401 0.831628 35.5065 1.65564C46.0086 5.27705 45.2813 14.0897 43.1943 19.1885C42.7867 20.1843 42.1306 21.0508 41.3891 21.8304Z" stroke="#252C36" stroke-width="2"/>
</svg>
